<svg width="18" height="16" viewBox="0 0 18 16" fill="none" xmlns="http://www.w3.org/2000/svg">
<path d="M15.6212 9.72266C15.5333 10.0449 15.2404 10.25 14.9181 10.25H6.33411L6.53918 11.1875H14.3907C14.8302 11.1875 15.1818 11.627 15.0646 12.0664L14.9181 12.7695C15.4747 13.0332 15.8556 13.5898 15.8556 14.2344C15.8556 15.1426 15.0939 15.875 14.215 15.875C13.3068 15.875 12.5743 15.1426 12.5743 14.2344C12.5743 13.7949 12.7501 13.3848 13.0431 13.0625H6.92004C7.21301 13.3848 7.41809 13.7949 7.41809 14.2344C7.41809 15.1426 6.65637 15.875 5.77747 15.875C4.86926 15.875 4.13684 15.1426 4.13684 14.2344C4.13684 13.6484 4.45911 13.1211 4.95715 12.8281L2.87708 2.75H0.855591C0.445435 2.75 0.152466 2.45703 0.152466 2.04688V1.57812C0.152466 1.19727 0.445435 0.875 0.855591 0.875H3.84387C4.16614 0.875 4.45911 1.13867 4.547 1.46094L4.81067 2.75H16.295C16.7638 2.75 17.0861 3.18945 16.9982 3.62891L15.6212 9.72266Z" fill="white"/>
</svg>
