<svg width="119" height="46" viewBox="0 0 119 46" fill="none" xmlns="http://www.w3.org/2000/svg">
<g clip-path="url(#clip0_1_9)">
<path d="M13.2708 31.9791L20.5084 13.8242H24.1269L31.3524 31.967L27.5044 31.9791L26.4189 29.1955H18.2163L17.1309 31.9791H13.2708ZM22.4141 18.6656L19.6638 25.5644H25.092L22.4141 18.6656Z" fill="white"/>
<path d="M34.0906 13.8242V31.9791H47.3593V28.5902H37.7093V13.8242H34.0906Z" fill="#BA2C73"/>
<path d="M58.4686 31.9791C55.8953 31.9791 53.7443 31.1098 52.0153 29.3708C50.2863 27.632 49.4219 25.4757 49.4219 22.9017C49.4219 20.3196 50.2863 18.1611 52.0153 16.4264C53.7443 14.6916 55.8953 13.8242 58.4686 13.8242C61.0419 13.8242 63.1931 14.6916 64.9221 16.4264C66.6509 18.1611 67.5155 20.3196 67.5155 22.9017C67.5155 25.4837 66.6509 27.6422 64.9221 29.3769C63.1931 31.1118 61.0419 31.9791 58.4686 31.9791ZM58.4807 28.5902C60.081 28.5902 61.3837 28.0457 62.389 26.9563C63.3942 25.867 63.8968 24.5154 63.8968 22.9017C63.8968 21.288 63.3942 19.9363 62.389 18.847C61.3837 17.7577 60.073 17.2131 58.4565 17.2131C56.8563 17.2131 55.5535 17.7577 54.5484 18.847C53.5432 19.9363 53.0406 21.288 53.0406 22.9017C53.0406 24.5154 53.5432 25.867 54.5484 26.9563C55.5535 28.0457 56.8644 28.5902 58.4807 28.5902Z" fill="white"/>
<path d="M78.263 31.9791C75.7059 31.9711 73.5608 31.1016 71.8279 29.3708C70.0947 27.6401 69.2284 25.4716 69.2284 22.8655C69.2364 20.3155 70.1049 18.1713 71.8339 16.4325C73.5627 14.6935 75.7059 13.8242 78.263 13.8242C80.8445 13.8242 83.0599 14.6311 84.9095 16.2448L82.4971 18.8954C81.2667 17.9272 79.8553 17.4431 78.263 17.4431C76.6388 17.4512 75.33 17.9595 74.3368 18.968C73.3436 19.9767 72.8472 21.2678 72.8472 22.8412C72.8552 24.5275 73.3577 25.867 74.355 26.8594C75.352 27.8519 76.6628 28.3483 78.2872 28.3483C79.59 28.3483 80.5911 28.0901 81.2907 27.5735V24.4629L78.8783 24.4751V21.0862H84.9095V29.5586C83.0679 31.1723 80.8525 31.9791 78.263 31.9791Z" fill="white"/>
<path d="M96.6822 31.9791C94.1091 31.9791 91.9579 31.1098 90.2289 29.3708C88.4999 27.632 87.6355 25.4757 87.6355 22.9017C87.6355 20.3196 88.4999 18.1611 90.2289 16.4264C91.9579 14.6916 94.1091 13.8242 96.6822 13.8242C99.2556 13.8242 101.407 14.6916 103.136 16.4264C104.865 18.1611 105.729 20.3196 105.729 22.9017C105.729 25.4837 104.865 27.6422 103.136 29.3769C101.407 31.1118 99.2556 31.9791 96.6822 31.9791ZM96.6943 28.5902C98.2946 28.5902 99.5973 28.0457 100.603 26.9563C101.608 25.867 102.11 24.5154 102.11 22.9017C102.11 21.288 101.608 19.9363 100.603 18.847C99.5973 17.7577 98.2866 17.2131 96.6703 17.2131C95.0701 17.2131 93.7673 17.7577 92.7621 18.847C91.7568 19.9363 91.2543 21.288 91.2543 22.9017C91.2543 24.5154 91.7568 25.867 92.7621 26.9563C93.7673 28.0457 95.0781 28.5902 96.6943 28.5902Z" fill="white"/>
<path d="M117.37 1.55946H1.62932V44.2445H117.37V1.55946Z" stroke="white" stroke-width="5" stroke-miterlimit="1.5"/>
</g>
<defs>
<clipPath id="clip0_1_9">
<rect width="119" height="46" fill="white"/>
</clipPath>
</defs>
</svg>
