<svg width="16" height="19" viewBox="0 0 16 19" fill="none" xmlns="http://www.w3.org/2000/svg">
<path d="M11.0039 10.9375C13.6055 10.9375 15.75 13.082 15.75 15.6836V16.5625C15.75 17.5117 14.9766 18.25 14.0625 18.25H1.6875C0.738281 18.25 0 17.5117 0 16.5625V15.6836C0 13.082 2.10938 10.9375 4.71094 10.9375C5.73047 10.9375 6.1875 11.5 7.875 11.5C9.52734 11.5 9.98438 10.9375 11.0039 10.9375ZM14.0625 16.5625V15.6836C14.0625 13.9961 12.6914 12.625 11.0039 12.625C10.4766 12.625 9.66797 13.1875 7.875 13.1875C6.04688 13.1875 5.23828 12.625 4.71094 12.625C3.02344 12.625 1.6875 13.9961 1.6875 15.6836V16.5625H14.0625ZM7.875 10.375C5.0625 10.375 2.8125 8.125 2.8125 5.3125C2.8125 2.53516 5.0625 0.25 7.875 0.25C10.6523 0.25 12.9375 2.53516 12.9375 5.3125C12.9375 8.125 10.6523 10.375 7.875 10.375ZM7.875 1.9375C6.01172 1.9375 4.5 3.48438 4.5 5.3125C4.5 7.17578 6.01172 8.6875 7.875 8.6875C9.70312 8.6875 11.25 7.17578 11.25 5.3125C11.25 3.48438 9.70312 1.9375 7.875 1.9375Z" fill="white"/>
</svg>
